<?xml version="1.0" standalone="no"?>
<!DOCTYPE svg PUBLIC "-//W3C//DTD SVG 20010904//EN"
 "http://www.w3.org/TR/2001/REC-SVG-20010904/DTD/svg10.dtd">
<svg version="1.0" xmlns="http://www.w3.org/2000/svg"
 width="1001.000000pt" height="1001.000000pt" viewBox="0 0 1001.000000 1001.000000"
 preserveAspectRatio="xMidYMid meet">
<metadata>
Created by potrace 1.11, written by Peter Selinger 2001-2013
</metadata>
<g transform="translate(0.000000,1001.000000) scale(0.100000,-0.100000)"
fill="#000000" stroke="none">
<path d="M6357 9840 c-102 -26 -156 -88 -167 -195 -7 -65 -5 -426 2 -475 15
-97 27 -157 42 -215 8 -33 17 -71 20 -85 3 -14 18 -76 34 -137 17 -62 28 -113
25 -113 -3 0 -29 24 -59 54 -67 68 -142 182 -201 306 -169 353 -197 397 -276
422 -64 20 -111 12 -197 -33 -66 -36 -88 -54 -118 -96 -24 -34 -70 -160 -67
-184 2 -8 10 -48 19 -89 9 -41 17 -79 18 -85 0 -5 16 -54 35 -109 136 -392
278 -652 490 -897 l91 -107 -91 -21 c-264 -62 -427 -153 -488 -271 -32 -64
-30 -154 5 -235 63 -141 141 -165 346 -109 86 23 125 29 215 29 l110 0 95 -48
c52 -26 115 -60 140 -76 118 -78 227 -124 314 -136 124 -16 187 -97 239 -310
24 -95 28 -138 32 -340 3 -135 0 -207 -9 -247 -45 -194 -220 -351 -401 -361
-126 -7 -204 31 -262 128 -104 174 -309 486 -420 640 -64 89 -67 94 -123 170
-120 165 -349 457 -464 590 -34 39 -81 95 -106 125 -25 29 -56 65 -70 80 -14
15 -40 44 -58 66 -35 42 -202 220 -321 343 -39 41 -71 77 -71 81 0 3 18 24 40
45 23 22 58 65 78 95 20 30 40 57 43 60 15 12 95 183 105 225 10 42 11 51 3
75 -36 116 -59 203 -65 245 -3 28 -8 59 -10 70 -6 27 -5 263 0 295 3 14 7 41
10 60 14 96 41 197 92 346 28 85 7 104 -111 99 -88 -4 -116 -10 -174 -40 -80
-40 -159 -148 -177 -241 -5 -25 -11 -31 -32 -32 -112 -5 -225 -99 -248 -206
-14 -64 7 -183 33 -187 4 -1 35 -2 68 -4 76 -2 122 -26 141 -71 36 -87 -30
-189 -148 -225 -95 -30 -182 -7 -212 55 -24 50 -5 103 63 173 37 38 40 44 30
72 -16 44 -96 120 -158 148 -53 25 -132 33 -193 20 -23 -5 -36 3 -86 51 -68
67 -145 107 -224 117 -56 7 -59 6 -87 -24 -44 -47 -73 -132 -76 -224 -2 -43 0
-91 4 -105 6 -23 2 -31 -30 -54 -102 -74 -146 -218 -95 -316 21 -41 31 -46 84
-43 122 6 199 -98 146 -200 -41 -81 -196 -140 -281 -108 -96 36 -107 145 -24
237 42 45 45 63 19 102 -47 70 -133 110 -234 110 -71 0 -129 -24 -174 -72
l-33 -35 -51 28 c-131 70 -268 78 -368 20 -122 -69 -166 -162 -88 -186 28 -8
168 -75 215 -103 194 -111 395 -321 521 -544 47 -85 51 -89 109 -113 59 -24
141 -47 220 -61 22 -4 106 -8 187 -9 82 -1 151 -4 154 -8 6 -6 6 -74 -1 -312
-5 -164 -15 -415 -20 -500 -2 -38 -7 -124 -10 -190 -4 -66 -8 -140 -10 -165
-2 -25 -6 -88 -10 -140 -3 -52 -8 -115 -10 -140 -4 -47 -12 -137 -20 -255 -3
-38 -7 -84 -9 -102 -3 -17 -7 -64 -10 -105 -4 -40 -9 -84 -11 -98 -2 -14 -7
-59 -10 -100 -12 -144 -72 -376 -148 -570 -82 -212 -187 -394 -366 -635 -245
-329 -290 -429 -292 -653 -2 -167 16 -273 80 -475 53 -164 72 -275 72 -412 0
-164 -21 -256 -87 -382 -31 -58 -134 -207 -154 -223 -4 -3 -45 -52 -91 -110
-115 -143 -143 -202 -144 -300 0 -84 13 -116 67 -169 57 -56 141 -92 251 -106
66 -8 105 13 145 78 l33 52 -6 -80 c-3 -44 -7 -100 -10 -125 -9 -106 -17 -303
-17 -405 0 -229 28 -341 107 -422 39 -40 62 -55 105 -66 219 -61 405 11 770
297 63 50 117 93 120 96 4 5 97 81 310 253 303 245 607 397 884 442 47 8 219
8 261 0 172 -32 340 -114 474 -231 151 -133 265 -272 465 -569 205 -302 309
-424 402 -471 82 -40 294 -20 428 41 182 83 308 311 362 655 3 19 7 46 10 60
2 14 7 52 10 85 3 33 7 71 9 84 22 131 22 851 1 981 -3 14 -7 64 -11 112 -3
49 -8 96 -9 105 -2 10 -7 48 -10 85 -4 37 -9 77 -11 90 -2 13 -6 44 -9 69 -4
25 -9 57 -11 70 -2 13 -13 78 -24 144 -12 66 -23 131 -26 145 -29 149 -42 208
-77 350 -99 412 -253 876 -423 1278 -72 172 -113 373 -108 535 3 102 33 277
65 376 34 108 63 168 137 291 98 161 109 227 105 675 -2 353 6 492 35 593 17
59 60 136 98 178 32 34 60 58 160 139 133 107 190 214 238 450 20 97 15 179
-21 347 -8 40 -18 84 -20 98 -3 14 -14 59 -24 100 -79 314 -59 575 64 817 82
164 109 338 66 429 -26 53 -66 81 -139 98 -64 15 -132 6 -217 -30 -166 -70
-274 -254 -359 -615 -17 -75 -49 -186 -55 -192 -16 -18 -83 104 -118 213 -21
65 -40 155 -82 385 -37 201 -66 288 -122 367 -24 35 -92 75 -138 82 -86 12
-138 14 -173 6z m-3124 -5958 c18 -19 17 -113 -1 -192 -6 -25 -27 -130 -46
-235 -20 -104 -38 -201 -41 -215 -2 -13 -7 -40 -10 -60 -3 -20 -8 -47 -10 -60
-5 -26 -10 -53 -19 -105 -3 -16 -10 -54 -16 -84 -5 -29 -10 -56 -11 -60 0 -3
-23 50 -50 119 -97 242 -115 360 -78 497 50 186 186 402 260 412 3 1 13 -7 22
-17z"/>
</g>
</svg>
