<?xml version="1.0" standalone="no"?>
<!DOCTYPE svg PUBLIC "-//W3C//DTD SVG 20010904//EN"
 "http://www.w3.org/TR/2001/REC-SVG-20010904/DTD/svg10.dtd">
<svg version="1.0" xmlns="http://www.w3.org/2000/svg"
 width="1023.000000pt" height="1023.000000pt" viewBox="0 0 1023.000000 1023.000000"
 preserveAspectRatio="xMidYMid meet">
<metadata>
Created by potrace 1.11, written by Peter Selinger 2001-2013
</metadata>
<g transform="translate(0.000000,1023.000000) scale(0.100000,-0.100000)"
fill="#000000" stroke="none">
<path d="M6407 9949 c-81 -19 -126 -57 -153 -129 -13 -36 -17 -90 -20 -260 -3
-252 7 -332 85 -637 52 -206 51 -212 -15 -141 -63 66 -132 168 -181 270 -28
56 -78 159 -111 228 -92 190 -144 240 -250 240 -36 0 -68 -9 -120 -35 -97 -49
-145 -105 -175 -204 l-24 -76 20 -90 c45 -213 158 -498 297 -751 51 -92 171
-260 259 -360 l80 -92 -97 -22 c-250 -58 -415 -148 -476 -260 -39 -72 -40
-163 -1 -247 65 -142 133 -161 370 -103 105 26 143 31 214 28 99 -4 157 -27
344 -141 119 -73 192 -104 282 -119 79 -14 106 -29 149 -82 85 -103 127 -281
132 -566 3 -140 0 -211 -9 -250 -34 -141 -131 -262 -260 -325 -64 -31 -81 -35
-158 -36 -67 -1 -95 3 -130 19 -65 31 -79 46 -159 177 -392 642 -873 1260
-1494 1920 l-98 105 52 56 c96 106 181 250 214 366 16 53 16 58 -3 109 -55
150 -65 214 -66 419 0 223 10 288 77 493 32 98 40 132 32 145 -17 26 -89 36
-172 23 -150 -23 -244 -105 -291 -254 -15 -48 -18 -52 -51 -55 -90 -9 -180
-77 -221 -166 -23 -50 -25 -143 -5 -191 17 -40 11 -37 93 -40 77 -3 122 -27
142 -78 57 -152 -209 -306 -335 -194 -28 24 -34 36 -34 69 0 48 11 71 60 123
52 55 53 67 19 119 -67 101 -198 156 -317 134 -41 -7 -44 -6 -78 32 -71 78
-194 140 -280 140 -41 0 -74 -37 -105 -117 -18 -46 -23 -80 -24 -163 l-1 -105
-56 -56 c-45 -45 -60 -68 -73 -114 -20 -66 -15 -131 13 -179 17 -28 24 -31 83
-37 107 -9 159 -54 159 -135 0 -70 -52 -128 -150 -165 -81 -31 -148 -23 -197
23 -50 46 -39 124 29 209 37 47 39 53 27 80 -16 41 -82 95 -137 113 -62 22
-157 20 -208 -3 -23 -10 -56 -35 -75 -54 l-33 -35 -51 29 c-27 15 -77 35 -110
44 -131 34 -236 9 -330 -77 -48 -43 -56 -55 -53 -82 3 -33 2 -32 139 -95 136
-63 262 -153 385 -275 104 -105 147 -162 279 -373 25 -40 40 -52 89 -71 116
-46 229 -65 400 -66 l159 -1 -8 -285 c-4 -157 -9 -298 -10 -315 -1 -16 -6
-106 -10 -200 -3 -93 -8 -186 -10 -205 -2 -19 -6 -93 -10 -165 -3 -71 -8 -137
-10 -145 -2 -8 -7 -69 -10 -135 -4 -66 -8 -127 -10 -135 -1 -8 -6 -55 -9 -105
-4 -49 -11 -130 -16 -180 -5 -49 -12 -119 -15 -155 -12 -137 -27 -222 -60
-351 -84 -333 -208 -594 -418 -880 -201 -275 -230 -317 -268 -395 -58 -120
-72 -198 -66 -384 5 -166 16 -224 82 -432 47 -145 65 -258 65 -403 0 -252 -58
-379 -318 -689 -104 -125 -149 -207 -158 -286 -9 -77 9 -133 59 -187 63 -69
142 -103 268 -118 54 -6 59 -4 94 26 20 18 45 48 56 68 l19 36 -6 -100 c-3
-55 -8 -111 -10 -125 -3 -14 -8 -137 -11 -275 -4 -202 -3 -266 10 -331 39
-203 136 -285 336 -286 195 -1 361 94 816 467 375 307 521 409 730 510 202 98
344 135 524 135 123 0 221 -17 319 -57 255 -101 455 -302 777 -778 138 -204
219 -309 288 -372 86 -78 114 -88 237 -87 401 4 591 248 665 854 19 154 33
458 29 635 -4 151 -15 412 -19 439 -2 12 -6 57 -10 101 -59 734 -270 1554
-603 2350 -71 171 -110 367 -105 530 8 226 92 512 188 640 38 52 73 129 96
216 22 81 23 97 20 459 -4 612 24 718 234 885 203 162 260 261 306 539 12 71
11 89 -9 211 -13 73 -36 188 -53 255 -91 376 -79 561 57 861 108 241 112 427
10 490 -75 46 -150 52 -253 20 -130 -40 -213 -118 -285 -264 -45 -91 -70 -168
-127 -385 -25 -96 -50 -174 -56 -174 -14 -2 -71 95 -96 162 -31 82 -54 178
-83 350 -39 221 -61 305 -103 390 -48 95 -97 131 -201 148 -80 14 -92 14 -145
1z m-1532 -500 c-45 -130 -66 -254 -72 -419 -7 -203 5 -295 69 -517 11 -38 9
-48 -15 -111 -203 -517 -1066 -887 -1639 -701 l-66 21 -52 88 c-157 265 -392
489 -642 611 -38 18 -68 36 -68 40 0 4 21 17 46 29 84 41 216 13 336 -71 36
-26 64 -24 85 7 10 14 32 42 49 62 29 33 36 36 95 39 53 3 70 0 101 -19 l38
-23 -26 -38 c-70 -103 -71 -215 -2 -293 52 -58 101 -79 193 -79 69 0 89 4 146
31 133 64 195 152 187 270 -7 110 -77 183 -199 208 -72 14 -80 27 -59 91 16
50 46 83 100 110 26 13 50 31 54 40 3 9 -1 42 -10 73 -19 65 -14 156 12 221
16 40 18 42 48 35 57 -12 106 -44 174 -114 69 -70 86 -79 124 -59 55 30 174 3
222 -50 18 -20 18 -21 -20 -77 -37 -54 -39 -60 -39 -133 0 -67 4 -83 27 -118
81 -123 308 -129 441 -12 58 50 84 92 98 158 30 140 -62 253 -213 263 -36 2
-38 4 -38 36 0 47 27 98 68 130 28 21 49 27 110 32 86 6 76 -5 106 110 31 113
103 183 204 199 26 4 48 7 49 6 2 -1 -8 -35 -22 -76z m-475 -3334 c20 -25 1
-75 -49 -124 -51 -52 -105 -81 -161 -88 -32 -5 -40 -2 -55 20 -14 22 -14 29
-2 59 18 44 77 101 130 127 49 24 119 28 137 6z m1633 -127 c41 -68 110 -184
152 -258 91 -160 417 -810 412 -823 -4 -14 -174 -82 -367 -147 -680 -229
-1391 -293 -2100 -189 -119 17 -381 67 -387 73 -4 3 84 417 89 420 51 38 46
40 122 -38 291 -297 762 -378 1193 -206 495 198 791 716 660 1155 -13 44 -26
87 -28 95 -3 12 13 17 71 26 41 7 83 12 92 13 11 1 41 -39 91 -121z m932
-1988 c58 -167 146 -442 142 -446 -12 -12 -318 -127 -479 -179 -668 -217
-1394 -317 -2073 -286 -364 17 -580 43 -917 107 -179 34 -188 37 -183 58 3 11
34 169 70 350 35 180 66 330 68 333 3 2 60 -7 127 -22 140 -29 389 -68 565
-87 162 -18 859 -18 1010 0 410 48 708 108 1041 211 150 46 463 163 508 189
l31 18 18 -45 c9 -25 42 -116 72 -201z m-3686 1 c26 -17 24 -101 -7 -256 -38
-184 -73 -373 -107 -570 -14 -82 -28 -161 -31 -175 -4 -19 -18 8 -64 125 -60
154 -90 270 -90 348 0 141 133 433 233 512 35 27 45 29 66 16z m4013 -1208
c31 -164 88 -679 76 -687 -11 -7 -452 -151 -538 -175 -272 -77 -538 -137 -830
-186 -205 -35 -228 -35 -332 4 -128 47 -224 63 -373 63 -194 0 -377 -43 -570
-134 -64 -29 -77 -32 -155 -30 -270 8 -644 42 -930 87 -151 23 -411 72 -417
79 -5 5 91 671 102 702 3 9 20 8 67 -2 231 -49 558 -98 848 -126 181 -17 906
-17 1095 0 661 61 1296 206 1840 420 55 22 102 38 104 36 2 -2 8 -25 13 -51z
m53 -1535 c-14 -182 -37 -348 -59 -450 -54 -235 -127 -308 -307 -308 -106 0
-138 33 -379 381 -81 118 -147 215 -146 216 1 1 82 21 180 43 179 42 484 126
626 173 41 14 79 25 84 26 4 1 5 -36 1 -81z m-4098 -182 c89 -19 421 -73 500
-81 l62 -7 -57 -50 c-226 -200 -426 -291 -504 -229 -41 33 -69 132 -75 269 -3
61 -3 112 0 112 3 0 36 -6 74 -14z"/>
</g>
</svg>
